<?xml version="1.0" encoding="UTF-8" standalone="no"?>
<svg
   width="24"
   height="24"
   fill="none"
   stroke="currentColor"
   stroke-width="2"
   stroke-linecap="round"
   stroke-linejoin="round"
   class="feather feather-battery"
   version="1.1"
   id="svg1"
   xmlns="http://www.w3.org/2000/svg"
   xmlns:svg="http://www.w3.org/2000/svg">
  <defs
     id="defs1" />
  <path
     d="M 2.499,5.043 C 1.38,5.232 0.461,6.048 0.114,7.16 L 0.02,7.46 v 9.08 l 0.094,0.3 a 3.086,3.086 0 0 0 2.046,2.046 l 0.3,0.094 h 15.08 l 0.3,-0.094 a 3.086,3.086 0 0 0 2.046,-2.046 l 0.094,-0.3 V 7.46 L 19.886,7.16 A 3.089,3.089 0 0 0 17.861,5.121 L 17.54,5.02 10.12,5.014 C 6.039,5.011 2.609,5.024 2.499,5.043 M 17.31,7.061 c 0.279,0.083 0.546,0.35 0.629,0.629 0.053,0.177 0.061,0.751 0.061,4.311 0,4.457 0.007,4.318 -0.221,4.617 -0.061,0.08 -0.194,0.195 -0.295,0.254 L 17.3,16.98 H 2.7 L 2.516,16.872 A 1.051,1.051 0 0 1 2.058,16.316 C 1.969,16.062 1.971,7.992 2.061,7.69 2.14,7.421 2.412,7.143 2.673,7.063 2.964,6.974 17.009,6.971 17.31,7.061 m 5.385,2.996 a 1.04,1.04 0 0 0 -0.567,0.459 L 22.02,10.7 v 2.606 l 0.121,0.197 a 0.998,0.998 0 0 0 1.718,0 L 23.98,13.306 V 10.7 l -0.108,-0.184 a 1.005,1.005 0 0 0 -1.177,-0.459"
     fill="#000000"
     fill-rule="evenodd"
     stroke="none"
     id="path1" />
  <path
     d="M 6.1758962,7.6789703 C 6.1067314,7.6002672 2.8794749,7.6028495 2.8126077,7.6806756 2.752634,7.750634 2.6898382,7.9936983 2.6716853,8.2289334 c -0.020681,0.2640928 -0.0209,7.3219776 -4.485e-4,7.5440946 a 0.24150333,0.91907812 0 0 0 0.1050185,0.485064 l 0.042187,0.09565 h 3.3552099 l 0.042187,-0.09565 c 0.023209,-0.0516 0.053752,-0.152078 0.067769,-0.222037 0.052391,-0.261467 0.050714,-0.138369 0.050714,-4.035926 0,-3.113147 -0.00175,-3.6164101 -0.013911,-3.771193 C 6.3013409,7.9849562 6.2400077,7.7515522 6.1758979,7.6789703 Z"
     style="fill:#000000;fill-rule:evenodd;stroke:none;stroke-width:0.896529"
     id="path3" />
</svg>
