<?xml version="1.0" encoding="UTF-8" standalone="no"?>
<svg
   width="24"
   height="24"
   fill="none"
   stroke="currentColor"
   stroke-width="2"
   stroke-linecap="round"
   stroke-linejoin="round"
   class="feather feather-battery"
   version="1.1"
   id="svg1"
   xmlns="http://www.w3.org/2000/svg"
   xmlns:svg="http://www.w3.org/2000/svg">
  <defs
     id="defs1" />
  <path
     d="M 2.499,5.043 C 1.38,5.232 0.461,6.048 0.114,7.16 L 0.02,7.46 v 9.08 l 0.094,0.3 a 3.086,3.086 0 0 0 2.046,2.046 l 0.3,0.094 h 15.08 l 0.3,-0.094 a 3.086,3.086 0 0 0 2.046,-2.046 l 0.094,-0.3 V 7.46 L 19.886,7.16 A 3.089,3.089 0 0 0 17.861,5.121 L 17.54,5.02 10.12,5.014 C 6.039,5.011 2.609,5.024 2.499,5.043 M 17.31,7.061 c 0.279,0.083 0.546,0.35 0.629,0.629 0.053,0.177 0.061,0.751 0.061,4.311 0,4.457 0.007,4.318 -0.221,4.617 -0.061,0.08 -0.194,0.195 -0.295,0.254 L 17.3,16.98 H 2.7 L 2.516,16.872 A 1.051,1.051 0 0 1 2.058,16.316 C 1.969,16.062 1.971,7.992 2.061,7.69 2.14,7.421 2.412,7.143 2.673,7.063 2.964,6.974 17.009,6.971 17.31,7.061 m 5.385,2.996 a 1.04,1.04 0 0 0 -0.567,0.459 L 22.02,10.7 v 2.606 l 0.121,0.197 a 0.998,0.998 0 0 0 1.718,0 L 23.98,13.306 V 10.7 l -0.108,-0.184 a 1.005,1.005 0 0 0 -1.177,-0.459"
     fill="#000000"
     fill-rule="evenodd"
     stroke="none"
     id="path1" />
  <path
     d="M 9.6922514,7.6789703 C 9.5539907,7.6002672 3.1026917,7.6028495 2.9690238,7.6806756 2.8491361,7.750634 2.7236071,7.9936983 2.6873193,8.2289334 2.6459788,8.4930262 2.645541,15.550911 2.6864228,15.773028 a 0.48276615,0.91907812 0 0 0 0.2099325,0.485064 l 0.084332,0.09565 h 6.7070784 l 0.084331,-0.09565 c 0.046395,-0.0516 0.1074504,-0.152078 0.1354694,-0.222037 0.1047309,-0.261467 0.1013789,-0.138369 0.1013789,-4.035926 0,-3.113147 -0.0035,-3.6164101 -0.027808,-3.771193 C 9.9430158,7.9849562 9.8204107,7.7515522 9.6922549,7.6789703 Z"
     style="fill:#000000;fill-rule:evenodd;stroke:none;stroke-width:1.26757"
     id="path3" />
</svg>
