<?xml version="1.0" encoding="UTF-8" standalone="no"?>
<svg
   width="24"
   height="24"
   fill="none"
   stroke="currentColor"
   stroke-width="2"
   stroke-linecap="round"
   stroke-linejoin="round"
   class="feather feather-battery"
   version="1.1"
   id="svg1"
   xmlns="http://www.w3.org/2000/svg"
   xmlns:svg="http://www.w3.org/2000/svg">
  <defs
     id="defs1" />
  <path
     d="M 2.499,5.043 C 1.38,5.232 0.461,6.048 0.114,7.16 L 0.02,7.46 v 9.08 l 0.094,0.3 a 3.086,3.086 0 0 0 2.046,2.046 l 0.3,0.094 h 15.08 l 0.3,-0.094 a 3.086,3.086 0 0 0 2.046,-2.046 l 0.094,-0.3 V 7.46 L 19.886,7.16 A 3.089,3.089 0 0 0 17.861,5.121 L 17.54,5.02 10.12,5.014 C 6.039,5.011 2.609,5.024 2.499,5.043 M 17.31,7.061 c 0.279,0.083 0.546,0.35 0.629,0.629 0.053,0.177 0.061,0.751 0.061,4.311 0,4.457 0.007,4.318 -0.221,4.617 -0.061,0.08 -0.194,0.195 -0.295,0.254 L 17.3,16.98 H 2.7 L 2.516,16.872 A 1.051,1.051 0 0 1 2.058,16.316 C 1.969,16.062 1.971,7.992 2.061,7.69 2.14,7.421 2.412,7.143 2.673,7.063 2.964,6.974 17.009,6.971 17.31,7.061 m 5.385,2.996 a 1.04,1.04 0 0 0 -0.567,0.459 L 22.02,10.7 v 2.606 l 0.121,0.197 a 0.998,0.998 0 0 0 1.718,0 L 23.98,13.306 V 10.7 l -0.108,-0.184 a 1.005,1.005 0 0 0 -1.177,-0.459"
     fill="#000000"
     fill-rule="evenodd"
     stroke="none"
     id="path1" />
  <path
     d="M 16.704117,7.6789703 C 16.428074,7.6002672 3.547802,7.6028495 3.2809288,7.6806756 3.0415682,7.750634 2.7909448,7.9936983 2.7184947,8.2289334 2.6359567,8.4930262 2.6350827,15.550911 2.7167047,15.773028 a 0.9638616,0.91907812 0 0 0 0.4191386,0.485064 l 0.1683721,0.09565 H 16.695161 l 0.168371,-0.09565 c 0.09263,-0.0516 0.214529,-0.152078 0.27047,-0.222037 0.209098,-0.261467 0.202406,-0.138369 0.202406,-4.035926 0,-3.113147 -0.007,-3.6164101 -0.05552,-3.771193 -0.07611,-0.2439798 -0.320896,-0.4773838 -0.576764,-0.5499657 z"
     style="fill:#000000;fill-rule:evenodd;stroke:none;stroke-width:1.79106"
     id="path3" />
</svg>
