<svg fill="currentColor" width="800" height="800" viewBox="0 0 24 24" xmlns="http://www.w3.org/2000/svg"><path d="M390.352 67.914c-7.641 2.469-13.453 7.741-51.458 46.683l-39.105 40.07h-58.394c-63.214 0-64.769.155-74.274 7.404-2.417 1.844-6.058 6.182-8.091 9.641L155.333 178l-.384 60.941-.384 60.942-41.207 40.264c-44.982 43.953-46.72 46.191-46.662 60.1.054 13.115 2.098 15.762 46.655 60.42L154.591 502l.371 60 .371 60 3.697 6.288c2.033 3.459 5.674 7.797 8.091 9.641 9.501 7.247 11.079 7.404 74.055 7.404h58.174l39.992 40.087c21.995 22.048 42.541 41.604 45.657 43.46 7.725 4.598 19.463 5.634 27.992 2.469 5.319-1.973 13.118-9.094 48.342-44.14l42-41.787 60-.378c58.565-.368 60.128-.446 65.334-3.255 6.982-3.768 11.876-9.058 15.225-16.456 2.599-5.741 2.717-8.531 2.745-64.639l.03-58.639 41.842-42.028c38.615-38.785 42.022-42.579 44.16-49.185 2.695-8.325 2.042-16.487-1.983-24.801-1.725-3.565-16.786-19.26-43.988-45.839l-41.365-40.418v-58.321c0-66.204-.098-66.965-9.965-76.831-9.849-9.85-10.727-9.965-75.947-9.965h-57.438l-39.991-40.087c-21.996-22.048-42.566-41.619-45.712-43.491-6.249-3.72-19.295-5.317-25.928-3.175m44.927 114.562c30.304 30.091 35.557 34.755 41.292 36.667 5.606 1.869 13.585 2.19 54.333 2.19h47.763v47.763c0 40.748.321 48.727 2.19 54.333 1.913 5.738 6.597 11.008 36.944 41.571l34.753 35-34.753 35c-30.347 30.563-35.031 35.833-36.944 41.571-1.869 5.606-2.19 13.585-2.19 54.333v47.763h-47.092c-39.441 0-48.267.349-54.333 2.15-6.77 2.01-9.525 4.419-42.242 36.923l-35 34.772-35-34.772c-32.717-32.504-35.472-34.913-42.242-36.923-6.066-1.801-14.892-2.15-54.333-2.15h-47.092v-47.763c0-40.748-.321-48.727-2.19-54.333-1.913-5.738-6.597-11.008-36.944-41.571l-34.753-35 34.753-35c30.347-30.563 35.031-35.833 36.944-41.571 1.869-5.606 2.19-13.585 2.19-54.333v-47.763h47.763c40.73 0 48.73-.322 54.333-2.189 5.74-1.912 10.956-6.547 41.238-36.652 19.066-18.954 34.942-34.469 35.278-34.477.337-.008 16.237 15.499 35.334 34.461" fill-rule="evenodd"/></svg>