<svg viewBox="0 0 24 24" xmlns="http://www.w3.org/2000/svg"><path d="M11.64 2.068c-.151.052-.409.29-1.621 1.497L8.578 5H7.214c-1.475 0-1.563.011-1.84.222a1.19 1.19 0 0 0-.243.289L5.02 5.7l-.012 1.44-.011 1.44-1.433 1.44c-1.274 1.28-1.44 1.462-1.499 1.637a.987.987 0 0 0 0 .686c.059.175.225.357 1.499 1.637l1.433 1.44.011 1.44.012 1.44.111.189c.061.103.17.234.243.289.277.211.365.222 1.841.222H8.58l1.38 1.383c.759.76 1.461 1.431 1.56 1.49.153.091.226.107.48.107s.327-.016.48-.107c.099-.059.801-.73 1.56-1.49L15.42 19h1.363c1.556 0 1.631-.012 1.918-.299.287-.287.299-.362.299-1.917v-1.362l1.435-1.441c1.275-1.282 1.441-1.463 1.5-1.638.036-.109.065-.263.065-.343 0-.08-.029-.234-.065-.343-.059-.175-.225-.356-1.5-1.638L19 8.578V7.216c0-1.555-.012-1.63-.299-1.917-.287-.287-.362-.299-1.917-.299h-1.362l-1.441-1.435c-1.282-1.275-1.463-1.441-1.638-1.5a1.047 1.047 0 0 0-.703.003M13.3 5.72 14.58 7H17v2.42l1.29 1.29L19.58 12l-1.29 1.29L17 14.58V17h-2.42l-1.29 1.29L12 19.58l-1.29-1.29L9.42 17H7v-2.42l-1.29-1.29L4.42 12l1.29-1.29L7 9.42V7h2.42l1.28-1.28A60.031 60.031 0 0 1 12 4.44c.011 0 .596.576 1.3 1.28m-1.867 2.32a4.407 4.407 0 0 0-1.66.643 3.99 3.99 0 0 0-1.692 2.552c-.32 1.569.38 3.222 1.738 4.108 2.37 1.544 5.532.21 6.099-2.574a3.989 3.989 0 0 0-1.089-3.584 4.178 4.178 0 0 0-1.871-1.065c-.386-.094-1.175-.136-1.525-.08" fill="currentColor" fill-rule="evenodd"/></svg>