<svg fill="currentColor" width="800" height="800" viewBox="0 0 24 24" xmlns="http://www.w3.org/2000/svg"><path d="M388 68.942c-5.048 1.738-13.623 9.655-54.041 49.895l-48.04 47.83H240.46c-49.144 0-52.098.356-61.339 7.404-2.417 1.844-6.058 6.182-8.091 9.641L167.333 190l-.389 48-.39 48-47.763 48c-42.469 42.68-48.004 48.728-49.943 54.571-2.759 8.312-2.759 14.546 0 22.858 1.939 5.843 7.474 11.891 49.943 54.571l47.763 48 .39 48 .389 48 3.697 6.288c2.033 3.459 5.674 7.797 8.091 9.641 9.242 7.049 12.191 7.404 61.387 7.404h45.506l45.993 46.086c25.296 25.348 48.693 47.698 51.993 49.667 5.083 3.034 7.528 3.581 16 3.581 8.472 0 10.917-.547 16-3.581 3.3-1.969 26.697-24.319 51.993-49.667l45.993-46.086h45.436c51.883 0 54.369-.387 63.946-9.965 9.577-9.576 9.965-12.069 9.965-63.898v-45.389l47.819-48.04c42.528-42.725 48.061-48.768 50-54.612 1.2-3.614 2.181-8.757 2.181-11.429 0-2.672-.981-7.815-2.181-11.429-1.939-5.844-7.472-11.887-50-54.612l-47.819-48.04V240.53c0-51.829-.388-54.322-9.965-63.898-9.576-9.577-12.069-9.965-63.898-9.965h-45.389l-48.04-47.819c-42.725-42.528-48.768-48.061-54.612-50-8.029-2.665-15.499-2.635-23.429.094m55.333 121.725 42.651 42.666H566.667v80.652l42.992 43.007L652.651 400l-42.992 43.008-42.992 43.007v80.652h-80.652l-43.007 42.992L400 652.651l-43.008-42.992-43.007-42.992h-80.652v-80.652l-42.992-43.007L147.349 400l42.992-43.008 42.992-43.007v-80.652H314.016l42.651-42.666C380.125 167.2 399.625 148 400 148s19.875 19.2 43.333 42.667M400 399.816v133.517h6.124c9.583 0 31.777-5.009 43.959-9.921 23.942-9.654 47.015-28.732 61.353-50.728 28.954-44.42 28.954-100.948 0-145.368-22.313-34.231-59.718-56.469-101.103-60.108L400 266.299v133.517" fill-rule="evenodd"/></svg>