<svg width="800" height="800" viewBox="0 0 1024 1024" xmlns="http://www.w3.org/2000/svg"><path d="M225.333 153.385c-28.164 7.243-52.021 26.671-64.607 52.615-6.25 12.882-9.635 24.925-10.307 36.667L150 250l12.333.383 12.334.384V300h-25.375l.354 37.667.354 37.666 12.333.384 12.334.383v47.8l-12.334.383-12.333.384-.354 37.666-.354 37.667h25.375V549.233l-12.334.384L150 550l.419 7.333c1.458 25.494 14.871 51.331 36.215 69.759 13.594 11.738 37.78 21.445 56.033 22.489L250 650l.383-12.333.384-12.334H300v25.375l37.667-.354 37.666-.354.384-12.333.383-12.334h47.8l.383 12.334.384 12.333 37.666.354 37.667.354v-25.375H549.233l.384 12.334L550 650l7.333-.419c25.494-1.458 51.331-14.871 69.759-36.215 11.738-13.594 21.445-37.78 22.489-56.033L650 550l-12.333-.383-12.334-.384V500h25.375l-.354-37.667-.354-37.666-12.333-.384-12.334-.383v-47.8l12.334-.383 12.333-.384.354-37.666.354-37.667h-25.375V250.767l12.334-.384L650 250l-.419-7.333c-1.46-25.523-15.009-51.594-36.215-69.683-14.304-12.201-40.101-22.317-56.913-22.317h-7.12v24H500v-24h-76v24h-48v-24h-76v24h-49.333v-24l-7.667.073c-4.217.04-12.167 1.231-17.667 2.645M570 204.398c10.5 4.897 20.813 15.166 25.572 25.463l3.761 8.139v324l-3.761 8.139c-4.759 10.297-15.072 20.566-25.572 25.463l-8 3.731H238l-8.139-3.761c-10.297-4.759-20.566-15.072-25.463-25.572l-3.731-8V238l3.732-8c6.43-13.78 20.067-25.262 33.929-28.566 2.826-.673 74.385-1.1 164.339-.98l159.333.213 8 3.731" fill="#83A598" fill-rule="evenodd"/></svg>