<svg xmlns="http://www.w3.org/2000/svg" width="24" height="24" fill="none" stroke="currentColor" stroke-width="2" stroke-linecap="round" stroke-linejoin="round" class="feather feather-power"><path d="M11.8 1.037a1.088 1.088 0 0 0-.722.566C11.002 1.753 11 1.87 11 7c0 5.17.001 5.245.08 5.401.191.372.516.577.92.577s.729-.205.92-.577c.079-.156.08-.231.08-5.401 0-5.13-.002-5.247-.078-5.397-.214-.418-.685-.656-1.122-.566M5.316 5.694c-.214.078-.413.245-.762.64a10.26 10.26 0 0 0-2.459 5.227c-.102.666-.103 2.252-.002 2.859.306 1.838 1.018 3.491 2.064 4.79.355.44 1.539 1.581 1.928 1.858a10.53 10.53 0 0 0 4.335 1.816c.412.073.634.085 1.56.085.922 0 1.149-.012 1.55-.084 2.224-.397 4.034-1.322 5.531-2.823 1.543-1.549 2.501-3.468 2.845-5.702.086-.56.098-1.992.021-2.54-.195-1.387-.614-2.651-1.239-3.74-.595-1.037-1.462-2.098-1.904-2.331-.261-.137-.624-.123-.903.035-.403.229-.576.617-.481 1.077.048.232.066.258.576.839a8.052 8.052 0 0 1 1.921 4.174c.08.57.081 1.688.003 2.238a7.826 7.826 0 0 1-1.211 3.248c-1.229 1.884-3.129 3.124-5.429 3.544-.556.101-1.954.103-2.5.002-1.44-.264-2.678-.807-3.72-1.629A10.217 10.217 0 0 1 5.761 18a8.314 8.314 0 0 1-1.667-3.78c-.094-.555-.094-1.885 0-2.44.276-1.621.927-2.964 2.044-4.22.166-.187.34-.416.385-.509.108-.219.11-.584.006-.821a1.107 1.107 0 0 0-.506-.49c-.2-.082-.546-.104-.707-.046" stroke="none"/></svg>
